<svg width="70" height="70" viewBox="0 0 70 70" fill="none" xmlns="http://www.w3.org/2000/svg">
<path d="M70 35C70 54.329 54.328 70 35 70C15.668 70 0 54.329 0 35C0 15.671 15.668 0 35 0C54.328 0 70 15.671 70 35Z" fill="#F35858"/>
<path d="M2.62601 48.311C7.86301 61.037 20.382 70 35 70C49.616 70 62.133 61.037 67.374 48.311H2.62601Z" fill="#F8C3A7"/>
<path d="M58.778 48.41H10.235L15.382 17.5L27.005 20.62L42.263 23.718L53.998 18.846L58.778 48.41Z" fill="#F35858"/>
<path d="M53.086 54.26H15.513L10.235 48.311H58.778L53.086 54.26Z" fill="#E6B49B"/>
<path d="M52.102 12H18.881C17.289 12 16 13.263 16 14.812V48.422C16 49.976 17.289 51.234 18.881 51.234H52.102C53.694 51.234 54.983 49.975 54.983 48.422V14.812C54.983 13.263 53.694 12 52.102 12ZM27.818 44.842H21.93V27.131H27.818V44.842ZM24.873 24.71H24.834C22.858 24.71 21.581 23.348 21.581 21.648C21.581 19.913 22.899 18.588 24.912 18.588C26.927 18.588 28.167 19.912 28.206 21.648C28.206 23.348 26.926 24.71 24.873 24.71ZM49.048 44.842H43.159V35.365C43.159 32.986 42.309 31.359 40.178 31.359C38.552 31.359 37.582 32.459 37.156 33.513C37.002 33.894 36.963 34.416 36.963 34.949V44.842H31.075C31.075 44.842 31.153 28.791 31.075 27.131H36.963V29.637C37.746 28.43 39.145 26.714 42.27 26.714C46.143 26.714 49.049 29.245 49.049 34.686V44.842H49.048Z" fill="#F1E6D4"/>
<path d="M36.963 29.696V29.637C36.951 29.657 36.938 29.681 36.924 29.696H36.963Z" fill="#F1E6D4"/>
</svg>
