<svg width="70" height="70" viewBox="0 0 70 70" fill="none" xmlns="http://www.w3.org/2000/svg">
<path fill-rule="evenodd" clip-rule="evenodd" d="M70 35C70 54.329 54.328 70 35 70C15.668 70 0 54.329 0 35C0 15.671 15.668 0 35 0C54.328 0 70 15.671 70 35Z" fill="#F35858"/>
<path fill-rule="evenodd" clip-rule="evenodd" d="M2.62601 48.31C7.86301 61.037 20.382 70 35 70C49.616 70 62.133 61.037 67.374 48.31H2.62601Z" fill="#F8C3A7"/>
<path fill-rule="evenodd" clip-rule="evenodd" d="M49.986 48.269H19.027L25.643 26.49L29.723 30.546L39.453 32.522L44.387 26.49L49.986 48.269Z" fill="#F35858"/>
<path fill-rule="evenodd" clip-rule="evenodd" d="M44.531 55.467H25.468L19.027 48.269H49.986L44.531 55.467Z" fill="#E6B49B"/>
<path d="M44.387 26.49H38.004V22.303C38.004 20.731 39.045 20.364 39.779 20.364C40.511 20.364 44.283 20.364 44.283 20.364V13.452L38.08 13.428C31.192 13.428 29.625 18.583 29.625 21.883V26.49H25.643V33.613H29.625C29.625 42.754 29.625 53.767 29.625 53.767H38.004C38.004 53.767 38.004 42.645 38.004 33.613H43.656L44.387 26.49Z" fill="#F1E6D4"/>
</svg>
