<svg width="70" height="70" viewBox="0 0 70 70" fill="none" xmlns="http://www.w3.org/2000/svg">
<path fill-rule="evenodd" clip-rule="evenodd" d="M70 35C70 54.329 54.329 70 35 70C15.668 70 0 54.329 0 35C0 15.671 15.668 0 35 0C54.329 0 70 15.671 70 35Z" fill="#F35858"/>
<path fill-rule="evenodd" clip-rule="evenodd" d="M2.62601 48.31C7.86301 61.037 20.382 70 35 70C49.616 70 62.134 61.037 67.374 48.31H2.62601Z" fill="#F8C3A7"/>
<path fill-rule="evenodd" clip-rule="evenodd" d="M59.847 48.269H10.154L20.237 22.008L24.912 30.792L39.454 32.522L53.713 24.117L59.847 48.269Z" fill="#F35858"/>
<path fill-rule="evenodd" clip-rule="evenodd" d="M54.391 55.467H16.594L10.153 48.269H59.846L54.391 55.467Z" fill="#E6B49B"/>
<path d="M53.713 24.117C52.391 24.705 50.967 25.101 49.473 25.28C50.998 24.366 52.169 22.92 52.72 21.196C51.293 22.041 49.714 22.656 48.032 22.988C46.685 21.552 44.766 20.657 42.643 20.657C38.567 20.657 35.261 23.962 35.261 28.039C35.261 28.617 35.326 29.181 35.452 29.72C29.317 29.413 23.877 26.474 20.236 22.008C19.601 23.098 19.236 24.366 19.236 25.719C19.236 28.281 20.539 30.54 22.52 31.865C21.311 31.825 20.172 31.493 19.177 30.94C19.177 30.972 19.177 31.002 19.177 31.034C19.177 34.61 21.721 37.594 25.099 38.272C24.479 38.441 23.828 38.53 23.154 38.53C22.678 38.53 22.216 38.485 21.764 38.398C22.704 41.331 25.43 43.465 28.66 43.525C26.134 45.504 22.952 46.685 19.492 46.685C18.896 46.685 18.309 46.65 17.731 46.582C20.999 48.677 24.878 49.898 29.047 49.898C42.625 49.898 50.05 38.65 50.05 28.894C50.05 28.575 50.044 28.255 50.029 27.939C51.473 26.899 52.726 25.598 53.713 24.117Z" fill="#F9F0DF"/>
<path d="M22.521 31.864C21.312 31.824 20.173 31.492 19.178 30.939C19.178 30.971 19.178 31.001 19.178 31.033C19.178 34.609 21.722 37.593 25.1 38.271C24.48 38.44 23.829 38.529 23.155 38.529C22.679 38.529 22.217 38.484 21.765 38.397C22.705 41.33 25.431 43.464 28.661 43.524C26.135 45.503 22.953 46.684 19.493 46.684C18.897 46.684 18.31 46.649 17.732 46.581C21 48.676 24.879 49.897 29.048 49.897C37.664 49.897 43.802 45.368 47.137 39.565C41.524 37.641 34.464 35.277 22.521 31.864Z" fill="#F1E6D4"/>
</svg>
